<?xml version="1.0" encoding="utf-8"?>
<!-- Uploaded to: SVG Repo, www.svgrepo.com, Generator: SVG Repo Mixer Tools -->
<svg width="800px" height="800px" viewBox="0 0 1024 1024" fill="#000000" class="icon"  version="1.1" xmlns="http://www.w3.org/2000/svg"><path d="M40.622 184.1c-4.414 0-8.076-3.576-8.076-7.996 0-4.422 3.498-7.998 7.918-7.998h0.156a7.994 7.994 0 0 1 7.998 7.998 7.99 7.99 0 0 1-7.996 7.996zM72.612 184.1c-4.414 0-8.076-3.576-8.076-7.996 0-4.422 3.498-7.998 7.918-7.998h0.156a7.994 7.994 0 0 1 7.998 7.998 7.99 7.99 0 0 1-7.996 7.996zM104.602 184.1c-4.414 0-8.076-3.576-8.076-7.996 0-4.422 3.498-7.998 7.918-7.998h0.156a7.994 7.994 0 0 1 7.998 7.998 7.99 7.99 0 0 1-7.996 7.996z" fill="" /><path d="M1015.848 200.096H8.156a7.994 7.994 0 0 1-7.998-7.998v-15.994c0-13.23 10.762-23.994 23.992-23.994h975.702c13.23 0 23.992 10.764 23.992 23.994v15.994a7.994 7.994 0 0 1-7.996 7.998zM16.152 184.1h991.696v-7.996a8.008 8.008 0 0 0-7.996-7.998H24.15a8.004 8.004 0 0 0-7.998 7.998v7.996z" fill="" /><path d="M1015.848 871.89H8.156a7.994 7.994 0 0 1-7.998-7.998V192.098a7.994 7.994 0 0 1 7.998-7.998h1007.692a7.994 7.994 0 0 1 7.996 7.998v671.794a7.994 7.994 0 0 1-7.996 7.998zM16.152 855.894h991.696V200.096H16.152v655.798z" fill="" /><path d="M512 807.91a7.994 7.994 0 0 1-7.998-7.998V256.078A7.994 7.994 0 0 1 512 248.08a7.992 7.992 0 0 1 7.996 7.998v543.834a7.992 7.992 0 0 1-7.996 7.998zM440.022 663.954H72.136a7.992 7.992 0 0 1-7.998-7.996 7.992 7.992 0 0 1 7.998-7.998h367.886a7.994 7.994 0 0 1 7.998 7.998 7.994 7.994 0 0 1-7.998 7.996z" fill="" /><path d="M72.136 663.954a7.992 7.992 0 0 1-7.998-7.996V288.068a7.994 7.994 0 0 1 7.998-7.998 7.994 7.994 0 0 1 7.998 7.998v367.888a7.996 7.996 0 0 1-7.998 7.998zM184.1 663.954H104.124a7.992 7.992 0 0 1-7.998-7.996V432.024a7.992 7.992 0 0 1 7.998-7.996H184.1a7.992 7.992 0 0 1 7.998 7.996v223.934a7.994 7.994 0 0 1-7.998 7.996z m-71.978-15.996h63.98V440.022h-63.98v207.936zM296.066 663.954h-79.976a7.992 7.992 0 0 1-7.998-7.996V336.054a7.994 7.994 0 0 1 7.998-7.998h79.976a7.994 7.994 0 0 1 7.998 7.998v319.902a7.994 7.994 0 0 1-7.998 7.998z m-71.978-15.996h63.98V344.05h-63.98v303.908zM408.032 663.954h-79.976a7.992 7.992 0 0 1-7.998-7.996v-111.966a7.994 7.994 0 0 1 7.998-7.998h79.976a7.994 7.994 0 0 1 7.998 7.998v111.966a7.994 7.994 0 0 1-7.998 7.996z m-71.978-15.996h63.98v-95.97h-63.98v95.97zM416.03 743.93H96.128c-4.42 0-7.998-3.578-7.998-7.998s3.578-7.998 7.998-7.998h319.902c4.42 0 7.998 3.578 7.998 7.998s-3.578 7.998-7.998 7.998zM352.05 775.918H160.108a7.992 7.992 0 0 1-7.998-7.996 7.994 7.994 0 0 1 7.998-7.998h191.942a7.994 7.994 0 0 1 7.998 7.998 7.994 7.994 0 0 1-7.998 7.996zM927.872 743.93h-319.9c-4.422 0-8-3.578-8-7.998s3.578-7.998 8-7.998h319.898c4.422 0 8 3.578 8 7.998s-3.578 7.998-7.998 7.998zM863.89 775.918h-191.938c-4.422 0-8-3.576-8-7.996a7.994 7.994 0 0 1 8-7.998h191.938c4.422 0 8 3.576 8 7.998a7.994 7.994 0 0 1-8 7.996zM767.922 663.954c-105.844 0-191.942-86.098-191.942-191.942 0-105.834 86.098-191.942 191.942-191.942s191.942 86.108 191.942 191.942c0 105.844-86.098 191.942-191.942 191.942z m0-367.888c-97.016 0-175.946 78.928-175.946 175.946s78.93 175.948 175.946 175.948 175.946-78.93 175.946-175.948-78.93-175.946-175.946-175.946z" fill="" /><path d="M767.922 551.988c-44.098 0-79.976-35.878-79.976-79.976 0-44.096 35.878-79.974 79.976-79.974s79.976 35.878 79.976 79.974c0 44.098-35.878 79.976-79.976 79.976z m0-143.956c-35.286 0-63.98 28.704-63.98 63.98 0 35.28 28.696 63.98 63.98 63.98s63.98-28.702 63.98-63.98c0-35.278-28.694-63.98-63.98-63.98z" fill="" /><path d="M767.922 408.196a7.99 7.99 0 0 1-7.996-7.998v-112.128c0-4.42 3.574-7.998 7.996-7.998s7.996 3.578 7.996 7.998v112.128a7.99 7.99 0 0 1-7.996 7.998zM897.976 610.064a7.976 7.976 0 0 1-5.656-2.344l-79.164-79.162a8 8 0 0 1 11.312-11.31l79.16 79.164a7.994 7.994 0 0 1 0 11.308 7.956 7.956 0 0 1-5.652 2.344z" fill="" /><path d="M768.14 344.058a8 8 0 0 1-5.656-13.652l42.894-42.892a7.994 7.994 0 0 1 11.308 0 7.994 7.994 0 0 1 0 11.308l-42.89 42.894a7.97 7.97 0 0 1-5.656 2.342zM768.14 389.294a8 8 0 0 1-5.656-13.652l77.226-77.226a7.996 7.996 0 1 1 11.308 11.31l-77.222 77.226a7.97 7.97 0 0 1-5.656 2.342zM790.774 411.906a7.994 7.994 0 0 1-5.652-13.652l82.536-82.53a7.994 7.994 0 0 1 11.308 0 7.994 7.994 0 0 1 0 11.308l-82.536 82.53a7.976 7.976 0 0 1-5.656 2.344zM818.812 429.126a7.998 7.998 0 0 1-5.656-13.652l79.18-79.178a7.994 7.994 0 0 1 11.308 0 7.994 7.994 0 0 1 0 11.308l-79.176 79.178a7.964 7.964 0 0 1-5.656 2.344zM836.074 457.096a7.994 7.994 0 0 1-5.656-13.652l82.726-82.724a7.998 7.998 0 0 1 11.308 11.308l-82.726 82.724a7.97 7.97 0 0 1-5.652 2.344zM836.902 501.52a7.994 7.994 0 0 1-5.656-13.652l98.218-98.228a7.994 7.994 0 0 1 11.308 0 7.994 7.994 0 0 1 0 11.308l-98.218 98.228a7.97 7.97 0 0 1-5.652 2.344zM836.074 547.582a7.996 7.996 0 0 1-5.656-13.652l110.668-110.668a8 8 0 0 1 11.312 11.308l-110.672 110.67a7.978 7.978 0 0 1-5.652 2.342zM858.41 570.498a7.998 7.998 0 0 1-5.656-13.652l93.426-93.44a7.994 7.994 0 0 1 11.308 0 7.994 7.994 0 0 1 0 11.308l-93.426 93.44a7.958 7.958 0 0 1-5.652 2.344zM881.028 593.116a7.994 7.994 0 0 1-5.652-13.65l64.168-64.184a7.998 7.998 0 0 1 11.308 11.308l-64.168 64.184a7.974 7.974 0 0 1-5.656 2.342z" fill="" /><path d="M184.1 472.012H104.124a7.994 7.994 0 0 1-7.998-7.998 7.992 7.992 0 0 1 7.998-7.996H184.1a7.992 7.992 0 0 1 7.998 7.996 7.994 7.994 0 0 1-7.998 7.998z" fill="" /><path d="M184.1 583.978H104.124c-4.42 0-7.998-3.578-7.998-7.998s3.576-7.998 7.998-7.998H184.1c4.42 0 7.998 3.578 7.998 7.998s-3.578 7.998-7.998 7.998z" fill="" /><path d="M296.066 408.196h-79.976a7.994 7.994 0 0 1-7.998-7.998 7.992 7.992 0 0 1 7.998-7.996h79.976a7.992 7.992 0 0 1 7.998 7.996 7.992 7.992 0 0 1-7.998 7.998z" fill="" /><path d="M296.066 519.998h-79.976c-4.42 0-7.998-3.578-7.998-7.998s3.578-7.998 7.998-7.998h79.976c4.42 0 7.998 3.578 7.998 7.998s-3.576 7.998-7.998 7.998z" fill="" /><path d="M408.032 583.978h-79.976c-4.42 0-7.998-3.578-7.998-7.998s3.576-7.998 7.998-7.998h79.976c4.42 0 7.998 3.578 7.998 7.998s-3.578 7.998-7.998 7.998z" fill="" /><path d="M408.032 615.968h-79.976c-4.42 0-7.998-3.578-7.998-7.998s3.576-7.998 7.998-7.998h79.976c4.42 0 7.998 3.578 7.998 7.998s-3.578 7.998-7.998 7.998z" fill="" /></svg>