<?xml version="1.0" encoding="utf-8"?>
<!-- Uploaded to: SVG Repo, www.svgrepo.com, Generator: SVG Repo Mixer Tools -->
<svg fill="#000000" width="800px" height="800px" viewBox="-5.5 0 32 32" version="1.1" xmlns="http://www.w3.org/2000/svg">
<title>wireless</title>
<path d="M13.68 24.8h-2.28v-11.56c0-0.48-0.36-0.84-0.84-0.84s-0.84 0.36-0.84 0.84v11.56h-2.28c-0.48 0-0.84 0.36-0.84 0.84s0.36 0.84 0.84 0.84h6.24c0.44 0 0.84-0.4 0.84-0.84 0-0.48-0.36-0.84-0.84-0.84zM12.88 16.4c-0.2 0-0.44-0.080-0.6-0.24-0.32-0.32-0.32-0.84 0-1.2 0.48-0.48 0.72-1.080 0.72-1.72s-0.24-1.28-0.72-1.72c-0.32-0.32-0.32-0.84 0-1.2 0.32-0.32 0.84-0.32 1.2 0 0.76 0.76 1.2 1.8 1.2 2.92s-0.44 2.12-1.2 2.92c-0.16 0.16-0.4 0.24-0.6 0.24zM15.2 18.72c-0.2 0-0.44-0.080-0.6-0.24-0.32-0.32-0.32-0.84 0-1.2 1.080-1.080 1.68-2.52 1.68-4.040s-0.6-2.96-1.68-4.080c-0.32-0.32-0.32-0.84 0-1.2 0.32-0.32 0.84-0.32 1.2 0 1.4 1.4 2.16 3.28 2.16 5.24 0 2-0.76 3.84-2.16 5.24-0.16 0.2-0.36 0.28-0.6 0.28zM17.44 20.96c-0.2 0-0.44-0.080-0.6-0.24-0.32-0.32-0.32-0.84 0-1.2 1.68-1.68 2.6-3.92 2.6-6.28s-0.92-4.6-2.6-6.28c-0.32-0.32-0.32-0.84 0-1.2 0.32-0.32 0.84-0.32 1.2 0 2 2 3.080 4.64 3.080 7.48 0 2.8-1.080 5.48-3.080 7.48-0.2 0.16-0.4 0.24-0.6 0.24zM7.64 16.16c-0.76-0.8-1.2-1.8-1.2-2.92s0.44-2.16 1.2-2.92c0.36-0.32 0.88-0.32 1.2 0 0.32 0.36 0.32 0.88 0 1.2-0.48 0.44-0.72 1.080-0.72 1.72s0.24 1.24 0.72 1.72c0.32 0.36 0.32 0.88 0 1.2-0.16 0.16-0.4 0.24-0.6 0.24s-0.44-0.080-0.6-0.24zM5.32 18.44c-1.4-1.4-2.16-3.24-2.16-5.24 0-1.96 0.76-3.84 2.16-5.24 0.36-0.32 0.88-0.32 1.2 0 0.32 0.36 0.32 0.88 0 1.2-1.080 1.12-1.68 2.56-1.68 4.080s0.6 2.96 1.68 4.040c0.32 0.36 0.32 0.88 0 1.2-0.16 0.16-0.4 0.24-0.6 0.24-0.24 0-0.44-0.080-0.6-0.28zM3.080 20.72c-2-2-3.080-4.68-3.080-7.48 0-2.84 1.080-5.48 3.080-7.48 0.36-0.32 0.88-0.32 1.2 0 0.32 0.36 0.32 0.88 0 1.2-1.68 1.68-2.6 3.92-2.6 6.28s0.92 4.6 2.6 6.28c0.32 0.36 0.32 0.88 0 1.2-0.16 0.16-0.4 0.24-0.6 0.24s-0.4-0.080-0.6-0.24z"></path>
</svg>